<svg width="500" height="209" viewBox="0 0 500 209" fill="none" xmlns="http://www.w3.org/2000/svg">
<path fill-rule="evenodd" clip-rule="evenodd" d="M177.241 1.43625L178.177 7.61472C180.08 20.1777 177.468 49.1839 154.011 72.6407C130.725 95.927 99.1656 101.44 85.7615 101.321L77.4299 101.247L77.3562 92.9156C77.2375 79.5115 82.7501 47.9525 106.036 24.6663C129.493 1.20938 158.499 -1.40336 171.062 0.500115L177.241 1.43625ZM161.683 16.9944C150.864 17.4402 133.091 21.5984 118.03 36.6599C103.193 51.4968 97.0524 70.8234 95.0855 83.5916C107.854 81.6247 127.18 75.4841 142.017 60.6471C157.079 45.5857 161.237 27.8127 161.683 16.9944ZM24.018 22.8099L30.2282 23.5048C38.2422 24.4015 54.7043 30.5382 64.6816 47.8194C74.5383 64.8916 72.8441 83.843 70.6611 91.7111L68.4335 99.7398L60.3666 97.6546C52.4611 95.6111 35.2017 87.6026 25.345 70.5304C15.3677 53.2492 18.2842 35.9242 21.5146 28.5356L24.018 22.8099ZM35.509 42.713C35.1513 47.912 35.9274 54.9365 40.0341 62.0496C44.0765 69.0511 50.0866 73.9803 55.3769 77.1251C55.2985 70.9711 54.0348 63.3017 49.9925 56.3002C45.8857 49.187 40.1904 45.0027 35.509 42.713ZM248.3 108.604C246.163 108.604 244.331 107.84 242.804 106.314C241.278 104.787 240.515 102.905 240.515 100.666C240.515 98.4268 241.278 96.595 242.804 95.1702C244.331 93.6437 246.163 92.8804 248.3 92.8804C250.437 92.8804 252.269 93.6437 253.796 95.1702C255.322 96.595 256.085 98.4268 256.085 100.666C256.085 102.905 255.322 104.787 253.796 106.314C252.269 107.84 250.437 108.604 248.3 108.604ZM253.643 124.327V207.676H242.957V124.327H253.643ZM302.418 122.801C312.392 122.801 320.533 125.905 326.843 132.112C333.152 138.219 336.307 147.123 336.307 158.827V207.676H325.774V160.048C325.774 150.991 323.484 144.07 318.905 139.287C314.427 134.504 308.27 132.112 300.434 132.112C292.394 132.112 285.982 134.657 281.199 139.745C276.416 144.834 274.025 152.314 274.025 162.185V207.676H263.339V124.327H274.025V138.524C276.671 133.435 280.487 129.568 285.474 126.922C290.46 124.174 296.108 122.801 302.418 122.801ZM378.259 133.334H358.871V207.676H348.186V133.334H336.584V124.327H348.186V118.526C348.186 109.469 350.476 102.803 355.055 98.5286C359.737 94.2543 367.267 92.1171 377.648 92.1171V101.276C370.728 101.276 365.843 102.599 362.993 105.245C360.245 107.891 358.871 112.318 358.871 118.526V124.327H378.259V133.334ZM391.264 139.135C393.605 133.944 397.167 129.924 401.95 127.075C406.835 124.225 412.788 122.801 419.81 122.801V133.944H416.91C409.175 133.944 402.967 136.031 398.286 140.203C393.605 144.376 391.264 151.347 391.264 161.117V207.676H380.578V124.327H391.264V139.135ZM416.498 165.849C416.498 157.3 418.178 149.82 421.536 143.409C424.996 136.896 429.728 131.909 435.733 128.449C441.839 124.887 448.708 123.106 456.341 123.106C464.279 123.106 471.098 124.938 476.797 128.601C482.597 132.265 486.77 136.946 489.314 142.646V124.327H500V207.676H489.314V189.205C486.668 194.904 482.445 199.636 476.644 203.402C470.945 207.065 464.126 208.897 456.188 208.897C448.657 208.897 441.839 207.116 435.733 203.554C429.728 199.993 424.996 194.955 421.536 188.442C418.178 181.928 416.498 174.398 416.498 165.849ZM489.314 166.002C489.314 159.285 487.94 153.382 485.193 148.294C482.445 143.205 478.679 139.287 473.896 136.539C469.215 133.792 464.025 132.418 458.326 132.418C452.423 132.418 447.131 133.741 442.449 136.387C437.768 139.033 434.054 142.9 431.306 147.988C428.66 152.975 427.337 158.929 427.337 165.849C427.337 172.667 428.66 178.672 431.306 183.862C434.054 188.951 437.768 192.869 442.449 195.616C447.131 198.262 452.423 199.585 458.326 199.585C464.025 199.585 469.215 198.212 473.896 195.464C478.679 192.716 482.445 188.798 485.193 183.709C487.94 178.621 489.314 172.718 489.314 166.002ZM79.7012 162.81C79.7012 164.907 79.8069 166.936 80.0183 168.896C76.3366 172.077 72.3245 174.865 67.9819 177.261C60.2474 181.468 53.3271 183.571 47.2209 183.571C37.7225 183.571 31.2771 180.45 27.8848 174.208C43.8965 170.273 55.2268 164.981 61.8757 158.332C68.6603 151.547 72.0526 143.474 72.0526 134.111C72.0526 126.105 69.678 119.795 64.9288 115.182C60.1796 110.433 53.8699 108.058 45.9997 108.058C37.1797 108.058 29.2417 110.433 22.1857 115.182C15.2654 119.931 9.8377 126.376 5.90262 134.518C1.96754 142.524 0 151.208 0 160.571C0 174.004 3.93508 184.588 11.8052 192.323C19.6754 200.057 30.7343 203.925 44.982 203.925C55.4303 203.925 65.2002 201.346 74.2916 196.19C78.9969 193.561 83.1553 190.808 86.7668 187.931C87.9313 189.624 89.2398 191.224 90.6923 192.73C98.1554 200.193 108.536 203.925 121.834 203.925C130.111 203.925 138.66 201.821 147.48 197.615C152.847 195.013 157.751 191.777 162.192 187.907C164.733 191.855 167.913 195.226 171.734 198.022C177.433 201.957 184.286 203.925 192.291 203.925C200.433 203.925 207.828 201.686 214.477 197.208C221.262 192.594 226.622 186.285 230.557 178.279C234.492 170.137 236.459 160.91 236.459 150.598C236.459 143.134 235.034 136.146 232.185 129.633C229.335 123.12 225.061 117.896 219.362 113.961C213.663 109.89 206.81 107.854 198.805 107.854C190.527 107.854 183.064 110.161 176.415 114.775C169.766 119.253 164.474 125.562 160.539 133.704C156.74 141.71 154.84 150.869 154.84 161.182C154.84 163.738 155.007 166.238 155.342 168.683C151.614 172.173 147.84 175.032 144.019 177.261C137.642 180.925 131.671 182.757 126.108 182.757C112.403 182.757 105.551 174.886 105.551 159.146C105.551 153.447 106.365 148.223 107.993 143.474C109.621 138.724 111.792 134.993 114.506 132.279C117.22 129.43 120.138 128.005 123.258 128.005C124.887 128.005 126.108 128.48 126.922 129.43C127.872 130.379 128.347 131.736 128.347 133.5C128.347 135.264 128.008 137.164 127.329 139.199C127.194 139.742 126.99 140.624 126.719 141.845C126.447 143.067 126.312 144.152 126.312 145.102C126.312 147.273 127.058 148.969 128.55 150.19C130.179 151.412 132.282 152.022 134.86 152.022C138.931 152.022 142.188 150.055 144.63 146.12C147.208 142.185 148.497 137.367 148.497 131.668C148.497 124.748 146.394 119.117 142.188 114.775C138.117 110.297 132.35 108.058 124.887 108.058C117.288 108.058 110.028 110.297 103.108 114.775C96.1878 119.253 90.5566 125.63 86.2144 133.907C81.8723 142.185 79.7012 151.819 79.7012 162.81ZM42.5395 128.005C37.5189 128.005 33.2446 130.922 29.7166 136.757C26.3243 142.592 24.6282 149.648 24.6282 157.925V158.332C32.634 156.432 38.9437 153.583 43.5572 149.783C48.1708 145.984 50.4776 141.574 50.4776 136.553C50.4776 133.975 49.7312 131.94 48.2386 130.447C46.8817 128.819 44.982 128.005 42.5395 128.005ZM194.53 181.942C199.144 181.942 203.011 179.432 206.132 174.412C209.389 169.391 211.017 162.064 211.017 152.429C211.017 144.966 209.66 139.335 206.946 135.536C204.232 131.736 200.976 129.837 197.176 129.837C192.291 129.837 188.221 132.347 184.964 137.367C181.843 142.252 180.283 149.58 180.283 159.35C180.283 167.084 181.64 172.783 184.353 176.447C187.067 180.111 190.46 181.942 194.53 181.942Z" fill="#2E7D32"/>
</svg>
